<svg xmlns="http://www.w3.org/2000/svg" viewBox="0 0 1080 250" fill="#fff" xmlns:v="https://vecta.io/nano"><path d="M212.4 57.44v32.08h52.56v32.37h-52.52v31.82h77.89v32.05H180.22V25.39h110.01v32.05H212.4zm328.95 8.32l12.82 14.67c-.12-.14 6.61-5.71 7.21-6.17 7.62-5.79 16.44-10.01 25.91-11.65 15.11-2.62 31.66 1.08 44.28 9.8 6.71 4.63 12.25 10.76 16.52 17.68 5.11 8.28 7.53 17.35 8.71 27.03 1.27 10.43.14 20.51-2.83 30.36-3.14 10.42-8.87 19.28-17.2 26.6-11.54 10.14-27.09 15.66-42.44 14.52-9.02-.67-16.92-3.67-24.64-7.8a149.72 149.72 0 0 1-4.23-2.37v53.19h-30.22l-.69-.69-.12-61.91.03-36.43.05-36.62.04-30.21m61.13 27.07c-10.66.24-20.85 6.36-26.38 16.1-4.97 8.75-5.6 19.83-1.67 29.09 3.9 9.17 12.18 16.59 21.96 18.78 22.28 4.99 40.38-16.99 36.47-38.17-1.84-9.99-8.62-19.03-17.87-23.23-4.08-1.85-8.34-2.67-12.52-2.57m174.62-26.39v30.37h-4.28c-18.51 0-37.03-.14-55.53.15-2.77.04-6.54 1.26-8.08 3.28-4.15 5.45-.45 11.76 6.6 11.84l31.85.09c9.84.25 18.9 3.26 26.28 9.97 17.18 15.59 14.12 44.95-5.96 57.75-6.4 4.08-13.42 6.25-21.12 6.22l-68.45-.05c-.27 0-.53-.12-1.04-.25v-30.32h4.57l62.42-.08c2.39-.02 4.98-.78 7.1-1.91 3.17-1.69 3.65-5.2 2.2-7.86-.84-1.54-3.95-2.53-6.07-2.58-11.33-.26-22.68.12-34-.22-12.81-.38-23.35-6.25-30.07-16.81-9.11-14.31-9.35-29.44.54-43.79 6.41-9.3 15.5-15.32 26.84-15.61 21.92-.57 43.87-.17 66.19-.17m72.17 90.3c12.73 3.27 28.82-3.68 34.37-16.63l21.67 23.41c.37.4-2.27 3.95-2.59 4.37-1.07 1.4-2.28 2.69-3.58 3.87-11.79 10.72-28.45 16.8-44.33 16.6-2.37-.03-4.73-.2-7.08-.51-15.33-2.01-29.44-9.91-39.15-21.95-1.64-2.04-3.16-4.18-4.53-6.41-4.67-7.62-7.5-16.23-8.63-25.09-4.46-35.04 13.94-59.95 37.93-68.69 27.22-9.92 56.62-1.68 73.25 21.89l-57.33 69.14m15.37-63.14c-14.94-2.26-26.75.92-34.57 14.06-4.62 7.75-5.51 27.21-.46 32.54l35.03-46.6m-446.83-4.31l-22.24 22.4-1.69-2.75-1.83-2.74c-1.16-1.64-2.38-3.28-3.74-4.77-.94-1.03-1.95-2.01-3.02-2.9-3.05-2.53-6.69-4.3-10.55-5.15-3.53-.78-7.22-.79-10.78-.13-3.18.59-6.26 1.71-9.11 3.23-2.91 1.55-5.38 3.64-7.62 6.06-3.06 3.32-5.47 7.23-7.12 11.43-1.61 4.08-2.51 8.45-2.51 12.83 0 5.49 1.49 11.01 4.38 15.69 5.45 8.83 15.56 14.54 25.9 14.84 11.02.32 20.48-8.49 27.33-16.12l22.18 21.82c.89.88-8.29 9.33-9.22 10.16-5.11 4.57-11.15 8.14-17.51 10.67-13.13 5.24-28.08 6.08-41.62 1.89-17.77-5.5-31.79-20.88-38.17-38-.79-2.11-1.46-4.26-2.02-6.44-4.47-17.44-1.32-36.75 8.7-51.71s26.79-25.27 44.69-27.18c21.84-2.33 42.93 7.61 54.88 25.82l.7 1.03m15.29-70.91h30.55v167.46h-30.55z"/><path d="M535.24 66.56l-.7.72.7-.72m-39.6 15.06c-8.22 0-14.9-6.45-15.33-14.56-.03.1-.06.19-.06.27l.07 117.85.67.75h30V66.25a15.37 15.37 0 0 1-15.37 15.37M511 49.17a15.37 15.37 0 1 1-30.74 0 15.37 15.37 0 1 1 30.74 0m74.46 173.88h14.81v2.25h-17.42v-24.63h16.89v2.25h-14.29v20.13zm-.28-11.37h13.02v2.22h-13.02v-2.22zm27.03 13.62l10.1-13.65v2.01l-9.5-12.98h2.99l7.99 10.84-1.16.04 7.99-10.87h2.82l-9.4 12.81v-1.83l10.06 13.65h-3.03l-8.52-11.58h1.09l-8.45 11.58h-2.99zm35.72 0v-24.63h9.22c2.09 0 3.88.33 5.38 1s2.66 1.63 3.47 2.89 1.21 2.77 1.21 4.56-.4 3.23-1.21 4.49-1.97 2.22-3.47 2.9-3.3 1.02-5.38 1.02h-7.78l1.16-1.23v9.01h-2.6zm2.6-8.8l-1.16-1.27h7.71c2.46 0 4.33-.53 5.61-1.6s1.92-2.57 1.92-4.52-.64-3.5-1.92-4.57c-1.28-1.08-3.15-1.62-5.61-1.62h-7.71l1.16-1.23v14.81zm42.65 9.01c-1.85 0-3.57-.31-5.16-.93-1.58-.62-2.96-1.5-4.12-2.64a12.28 12.28 0 0 1-2.71-3.98c-.65-1.51-.97-3.17-.97-4.98s.32-3.47.97-4.98a12.23 12.23 0 0 1 2.71-3.98c1.16-1.14 2.53-2.02 4.1-2.64s3.3-.93 5.17-.93 3.57.31 5.14.93 2.94 1.5 4.1 2.62a12.07 12.07 0 0 1 2.71 3.98c.64 1.53.97 3.19.97 5s-.32 3.47-.97 5a12.07 12.07 0 0 1-2.71 3.98c-1.16 1.13-2.53 2-4.1 2.62s-3.28.93-5.14.93zm0-2.32c1.48 0 2.84-.25 4.1-.76 1.25-.5 2.35-1.22 3.27-2.15.93-.93 1.65-2.01 2.16-3.24.52-1.23.77-2.59.77-4.06s-.26-2.83-.77-4.06c-.52-1.23-1.24-2.31-2.16-3.24a9.79 9.79 0 0 0-3.27-2.15c-1.26-.5-2.62-.76-4.1-.76s-2.85.25-4.12.76c-1.27.5-2.36 1.22-3.29 2.15s-1.65 2.01-2.18 3.24-.79 2.59-.79 4.06.26 2.8.79 4.05c.53 1.24 1.25 2.33 2.18 3.25.93.93 2.02 1.64 3.29 2.15 1.27.5 2.64.76 4.12.76zm34.77 2.32c-1.83 0-3.58-.3-5.26-.9s-2.97-1.37-3.89-2.3l1.02-2.01c.87.84 2.03 1.55 3.5 2.13a12.48 12.48 0 0 0 4.63.86c1.62 0 2.81-.19 3.78-.58s1.69-.91 2.15-1.57.69-1.38.69-2.18c0-.96-.28-1.74-.83-2.32-.55-.59-1.27-1.05-2.16-1.39s-1.88-.64-2.96-.9l-3.24-.83c-1.08-.29-2.07-.69-2.97-1.18s-1.63-1.14-2.18-1.95-.83-1.87-.83-3.18c0-1.22.32-2.34.97-3.36.64-1.02 1.64-1.84 2.97-2.46 1.34-.62 3.05-.93 5.14-.93 1.38 0 2.76.19 4.12.58s2.53.92 3.52 1.6l-.88 2.08c-1.06-.7-2.18-1.22-3.36-1.55s-2.33-.49-3.43-.49c-1.48 0-2.7.2-3.66.6s-1.67.93-2.13 1.6-.69 1.43-.69 2.27c0 .96.28 1.74.83 2.32.55.59 1.28 1.04 2.18 1.37s1.89.62 2.97.88l3.22.84a15.62 15.62 0 0 1 2.96 1.18c.9.48 1.63 1.12 2.18 1.92s.83 1.84.83 3.13c0 1.2-.33 2.3-.99 3.33-.66 1.02-1.66 1.84-3.01 2.46s-3.08.93-5.19.93z"/></svg>